<?xml version="1.0" encoding="utf-8"?>
<!-- Generator: Adobe Illustrator 24.0.1, SVG Export Plug-In . SVG Version: 6.00 Build 0)  -->
<svg version="1.1" id="Calque_1" xmlns="http://www.w3.org/2000/svg" xmlns:xlink="http://www.w3.org/1999/xlink" x="0px" y="0px"
	 viewBox="0 0 48 48" style="enable-background:new 0 0 48 48;" xml:space="preserve">
<style type="text/css">
	.st0{fill:#FCEA10;stroke:#000000;stroke-miterlimit:10;}
</style>
<ellipse class="st0" cx="24" cy="24.93" rx="20.2" ry="19.6"/>
<g>
	<path d="M34.18,39.28c-1.6,0.66-4.78,1.3-8.84,1.22c-9.41-0.17-16.4-5.48-16.22-15.03c0.17-9.11,7.36-15.16,17.71-14.97
		c4.16,0.08,6.77,0.9,7.9,1.44l-1.1,3.05c-1.62-0.72-3.94-1.28-6.71-1.33c-7.82-0.14-13.1,4.12-13.24,11.77
		c-0.13,7.13,4.49,11.79,12.61,11.94c2.63,0.05,5.31-0.38,7.05-1.08L34.18,39.28z"/>
</g>
<g>
</g>
<g>
</g>
<g>
</g>
<g>
</g>
<g>
</g>
<g>
</g>
</svg>
